<svg xmlns="http://www.w3.org/2000/svg" width="49.905" height="65.195" viewBox="0 0 49.905 65.195">
  <g id="Groupe_19" data-name="Groupe 19" transform="translate(-73 -2484)">
    <path id="Tools" d="M2.955,0H5.79V-7.92H8.415V-10.5H.315v2.58h2.64Zm11.6.2A5.3,5.3,0,0,0,20.085-5.25a5.3,5.3,0,0,0-5.535-5.445A5.3,5.3,0,0,0,9-5.25,5.3,5.3,0,0,0,14.55.2Zm0-2.7A2.609,2.609,0,0,1,11.9-5.25,2.609,2.609,0,0,1,14.55-7.995,2.6,2.6,0,0,1,17.19-5.25,2.6,2.6,0,0,1,14.55-2.5ZM26.625.2A5.3,5.3,0,0,0,32.16-5.25a5.3,5.3,0,0,0-5.535-5.445,5.3,5.3,0,0,0-5.55,5.445A5.3,5.3,0,0,0,26.625.2Zm0-2.7A2.609,2.609,0,0,1,23.97-5.25a2.609,2.609,0,0,1,2.655-2.745,2.6,2.6,0,0,1,2.64,2.745A2.6,2.6,0,0,1,26.625-2.5ZM33.675,0H40.8V-2.625H36.495V-10.5h-2.82ZM45.8.15c2.355,0,4.11-1.185,4.11-3.375,0-2.01-1.485-2.925-3.675-3.24-1.32-.21-1.755-.435-1.755-.945s.435-.8,1.2-.8,1.215.33,1.3.945h2.73c-.15-2.1-1.695-3.405-4-3.405-2.325,0-4.005,1.215-4.005,3.33,0,2.01,1.455,2.835,3.585,3.165,1.305.21,1.8.495,1.8,1.035,0,.48-.48.795-1.29.795-.9,0-1.38-.36-1.44-1.065H41.58C41.685-1.11,43.29.15,45.8.15Z" transform="translate(73 2549)"/>
    <g id="Groupe_18" data-name="Groupe 18" transform="translate(-48 -55)">
      <rect id="Rectangle_121" data-name="Rectangle 121" width="49" height="49" rx="5" transform="translate(121 2539)" fill="#fff"/>
      <g id="Groupe_11" data-name="Groupe 11" transform="translate(133.973 2547.866)">
        <path id="Blick_Logo_Rot_RGB" d="M13.381,20.241H7.871V26.5h5.509a3.131,3.131,0,1,0,0-6.263M12.2,9.022H7.871v6H12.2a3,3,0,1,0,0-6m12.462,14.74a9.681,9.681,0,0,1-9.708,9.654H0V2.108H13.906A9.158,9.158,0,0,1,23.09,11.24a9.048,9.048,0,0,1-1.7,5.294,9.609,9.609,0,0,1,3.277,7.229" transform="translate(0 -2.108)" fill="#e2271b"/>
      </g>
    </g>
  </g>
</svg>
