<svg xmlns="http://www.w3.org/2000/svg" width="53.889" height="72.639" viewBox="0 0 53.889 72.639">
  <g id="Groupe_35" data-name="Groupe 35" transform="translate(-595.556 -2464.556)">
    <path id="Tools" d="M2.955,0H5.79V-7.92H8.415V-10.5H.315v2.58h2.64Zm11.6.2A5.3,5.3,0,0,0,20.085-5.25a5.3,5.3,0,0,0-5.535-5.445A5.3,5.3,0,0,0,9-5.25,5.3,5.3,0,0,0,14.55.2Zm0-2.7A2.609,2.609,0,0,1,11.9-5.25,2.609,2.609,0,0,1,14.55-7.995,2.6,2.6,0,0,1,17.19-5.25,2.6,2.6,0,0,1,14.55-2.5ZM26.625.2A5.3,5.3,0,0,0,32.16-5.25a5.3,5.3,0,0,0-5.535-5.445,5.3,5.3,0,0,0-5.55,5.445A5.3,5.3,0,0,0,26.625.2Zm0-2.7A2.609,2.609,0,0,1,23.97-5.25a2.609,2.609,0,0,1,2.655-2.745,2.6,2.6,0,0,1,2.64,2.745A2.6,2.6,0,0,1,26.625-2.5ZM33.675,0H40.8V-2.625H36.495V-10.5h-2.82ZM45.8.15c2.355,0,4.11-1.185,4.11-3.375,0-2.01-1.485-2.925-3.675-3.24-1.32-.21-1.755-.435-1.755-.945s.435-.8,1.2-.8,1.215.33,1.3.945h2.73c-.15-2.1-1.695-3.405-4-3.405-2.325,0-4.005,1.215-4.005,3.33,0,2.01,1.455,2.835,3.585,3.165,1.305.21,1.8.495,1.8,1.035,0,.48-.48.795-1.29.795-.9,0-1.38-.36-1.44-1.065H41.58C41.685-1.11,43.29.15,45.8.15Z" transform="translate(598 2537)"/>
    <g id="Groupe_34" data-name="Groupe 34" transform="translate(479.5 -69.5)">
      <rect id="Rectangle_121" data-name="Rectangle 121" width="44" height="44" rx="10" transform="matrix(0.966, 0.259, -0.259, 0.966, 127.444, 2534.056)" fill="#e2271b"/>
      <g id="Groupe_11" data-name="Groupe 11" transform="translate(-436.844 3005.052)">
        <path id="Blick_Logo_Rot_RGB" d="M12,18.376H7.062V24H12a2.81,2.81,0,1,0,0-5.619M10.947,8.311H7.062V13.7h3.885a2.692,2.692,0,1,0,0-5.384M22.128,21.536a8.686,8.686,0,0,1-8.71,8.661H0V2.108H12.477a8.217,8.217,0,0,1,8.24,8.194,8.118,8.118,0,0,1-1.528,4.75,8.621,8.621,0,0,1,2.94,6.486" transform="translate(568.78 -460.205)" fill="#fff"/>
      </g>
    </g>
  </g>
</svg>
