<svg xmlns="http://www.w3.org/2000/svg" width="53.889" height="53.889" viewBox="0 0 53.889 53.889">
  <g id="Groupe_15" data-name="Groupe 15" transform="translate(-116.056 -2534.056)">
    <rect id="Rectangle_121" data-name="Rectangle 121" width="44" height="44" rx="10" transform="matrix(0.966, 0.259, -0.259, 0.966, 127.444, 2534.056)" fill="#e2271b"/>
    <g id="Groupe_11" data-name="Groupe 11" transform="translate(-436.844 3005.052)">
      <path id="Blick_Logo_Rot_RGB" d="M12,18.376H7.062V24H12a2.81,2.81,0,1,0,0-5.619M10.947,8.311H7.062V13.7h3.885a2.692,2.692,0,1,0,0-5.384M22.128,21.536a8.686,8.686,0,0,1-8.71,8.661H0V2.108H12.477a8.217,8.217,0,0,1,8.24,8.194,8.118,8.118,0,0,1-1.528,4.75,8.621,8.621,0,0,1,2.94,6.486" transform="translate(568.78 -460.205)" fill="#fff"/>
    </g>
  </g>
</svg>
