<svg xmlns="http://www.w3.org/2000/svg" xmlns:xlink="http://www.w3.org/1999/xlink" width="15" height="11.663" viewBox="0 0 15 11.663">
  <defs>
    <clipPath id="clip-path">
      <rect id="Rectangle_162" data-name="Rectangle 162" width="15" height="11.663" transform="translate(0 0)" fill="none"/>
    </clipPath>
  </defs>
  <g id="icon-eye" transform="translate(0 0.001)">
    <g id="Groupe_58" data-name="Groupe 58" transform="translate(0 -0.001)" clip-path="url(#clip-path)">
      <path id="Tracé_22" data-name="Tracé 22" d="M7.147.007c3.233-.156,5.877,2,7.377,4.686A4.216,4.216,0,0,1,15,5.744,3.555,3.555,0,0,1,14.391,7.2c-1.757,2.987-4.836,5.084-8.432,4.292a9.116,9.116,0,0,1-5.753-5A1.182,1.182,0,0,1,.222,5.138C1.456,2.481,4.123.153,7.147.007m.191,1.239c-2.756.092-4.948,2.216-6.08,4.578,1.287,2.744,4.018,5.1,7.243,4.5a6.5,6.5,0,0,0,3.265-1.771,9.048,9.048,0,0,0,1.942-2.722A9.223,9.223,0,0,0,11.75,3.1,6.28,6.28,0,0,0,7.572,1.24Z" transform="translate(0 0.001)"/>
      <path id="Tracé_23" data-name="Tracé 23" d="M1024.926,615.828a3.334,3.334,0,1,1-2.551,5.289,3.338,3.338,0,0,1,2.551-5.289m-1.935,3.283a2.051,2.051,0,0,0,1.228,1.956,2.083,2.083,0,0,0,2.9-2.309,2.038,2.038,0,0,0-2.092-1.68,1.685,1.685,0,0,1-1.44,2.063,1.974,1.974,0,0,1-.594-.03" transform="translate(-1017.588 -613.326)"/>
    </g>
  </g>
</svg>
