<svg id="icon-trash" xmlns="http://www.w3.org/2000/svg" xmlns:xlink="http://www.w3.org/1999/xlink" width="13.674" height="15.668" viewBox="0 0 13.674 15.668">
  <defs>
    <clipPath id="clip-path">
      <rect id="Rectangle_142" data-name="Rectangle 142" width="13.674" height="15.668" fill="none"/>
    </clipPath>
  </defs>
  <g id="Groupe_30" data-name="Groupe 30" clip-path="url(#clip-path)">
    <path id="Tracé_10" data-name="Tracé 10" d="M.684,3.933A.734.734,0,0,1,.733,2.467l2.14,0L4.1.65A1.754,1.754,0,0,1,5.378.022C6.4-.04,7.5.052,8.519.042A1.95,1.95,0,0,1,9.728.821L10.8,2.463l2.14,0A.736.736,0,0,1,13.612,3.5a.752.752,0,0,1-.624.436h-.416c0,.051,0,.1,0,.155-.245,2.964-.434,5.934-.668,8.9a4.17,4.17,0,0,1-.274,1.649,1.992,1.992,0,0,1-1.689,1.033H3.732a2,2,0,0,1-1.69-1.032,4.17,4.17,0,0,1-.274-1.649c-.234-2.965-.423-5.935-.668-8.9,0-.051,0-.1,0-.155-.134-.01-.284.013-.416,0M9.069,2.466l-.612-.9L8.34,1.492l-2.947,0a.307.307,0,0,0-.178.084c-.021.024-.01.051-.024.072-.177.279-.378.544-.555.823Zm2.053,1.467H2.55l.735,9.8a.493.493,0,0,0,.478.467H9.942a.533.533,0,0,0,.48-.5Z" transform="translate(0 0)" fill="#e2241a"/>
    <path id="Tracé_11" data-name="Tracé 11" d="M131.718,192.061a.643.643,0,0,1,.533.176l1.518,1.514,1.63-1.593a.6.6,0,0,1,.834.834l-1.593,1.618,1.5,1.513a.606.606,0,1,1-.856.856l-1.5-1.5-1.513,1.5a.606.606,0,1,1-.856-.856l1.5-1.5-1.593-1.63a.613.613,0,0,1,.4-.931" transform="translate(-126.94 -185.793)" fill="#e2241a"/>
  </g>
</svg>
