<svg id="icon-edit" xmlns="http://www.w3.org/2000/svg" xmlns:xlink="http://www.w3.org/1999/xlink" width="14" height="13.999" viewBox="0 0 14 13.999">
  <defs>
    <clipPath id="clip-path">
      <rect id="Rectangle_140" data-name="Rectangle 140" width="14" height="13.999" fill="none"/>
    </clipPath>
  </defs>
  <g id="Groupe_27" data-name="Groupe 27" clip-path="url(#clip-path)">
    <path id="Tracé_7" data-name="Tracé 7" d="M1.651,80.258a1.046,1.046,0,0,0,.766.334H9.932a1.134,1.134,0,0,0,1.1-1.111c.053-1.026-.04-2.1,0-3.129a.66.66,0,0,1,1.317.036c-.036,1.037.048,2.107,0,3.14a2.452,2.452,0,0,1-2.37,2.381h-7.6A2.452,2.452,0,0,1,0,79.527V71.953A2.451,2.451,0,0,1,2.381,69.56c1.03-.047,2.1.037,3.129,0a.66.66,0,0,1,.047,1.318c-1.028.038-2.094-.052-3.117,0a1.133,1.133,0,0,0-1.123,1.111v7.5a1.083,1.083,0,0,0,.334.766" transform="translate(0 -67.91)"/>
    <path id="Tracé_8" data-name="Tracé 8" d="M157.884.008a2.218,2.218,0,0,1,1.96.925,2,2,0,0,1-.053,2.817L154.27,9.258a2.031,2.031,0,0,1-.643.356c-.917.317-1.909.515-2.833.824a.671.671,0,0,1-.868-.68c.277-.953.514-1.927.82-2.873A2.275,2.275,0,0,1,151.254,6L156.675.574a2.081,2.081,0,0,1,1.209-.567M158,1.324a.84.84,0,0,0-.356.162l-.829.829,1.264,1.264.817-.817a.666.666,0,0,0-.023-.929c-.216-.252-.514-.551-.873-.508m-6.453,7.523,1.679-.49.166-.093,3.752-3.75L155.882,3.25,152.12,7.014l-.081.154Z" transform="translate(-146.397 0.001)"/>
  </g>
</svg>
