<svg xmlns="http://www.w3.org/2000/svg" xmlns:xlink="http://www.w3.org/1999/xlink" width="11.999" height="14" viewBox="0 0 11.999 14">
  <defs>
    <clipPath id="clip-path">
      <rect id="Rectangle_163" data-name="Rectangle 163" width="11.999" height="14" transform="translate(0 0)" fill="none"/>
    </clipPath>
  </defs>
  <g id="icon-download" transform="translate(0 0.004)">
    <g id="Groupe_60" data-name="Groupe 60" transform="translate(0 -0.004)" clip-path="url(#clip-path)">
      <path id="Tracé_24" data-name="Tracé 24" d="M257.957,7.356c.032.007.039-.01.057-.029.934-.96,1.818-1.975,2.768-2.917a.738.738,0,0,1,1.026,1.045C260.516,6.789,259.294,8.2,258,9.522c-.367.375-.7.684-1.228.311-1.419-1.446-2.812-2.93-4.176-4.429a.747.747,0,0,1,1.158-.928c.912.926,1.756,1.92,2.663,2.851.018.019.025.036.057.029V.65a1.16,1.16,0,0,1,.1-.3.75.75,0,0,1,1.272-.012,1.149,1.149,0,0,1,.111.308Z" transform="translate(-251.213 0.005)"/>
      <path id="Tracé_25" data-name="Tracé 25" d="M.671,2515.961l10.622-.005a.745.745,0,0,1,.019,1.488H.685a.744.744,0,0,1-.014-1.482" transform="translate(0 -2503.444)"/>
    </g>
  </g>
</svg>
