<svg id="icon-copy" xmlns="http://www.w3.org/2000/svg" xmlns:xlink="http://www.w3.org/1999/xlink" width="12.871" height="14.713" viewBox="0 0 12.871 14.713">
  <defs>
    <clipPath id="clip-path">
      <rect id="Rectangle_139" data-name="Rectangle 139" width="12.871" height="14.713" fill="none"/>
    </clipPath>
  </defs>
  <g id="Groupe_25" data-name="Groupe 25" clip-path="url(#clip-path)">
    <path id="Tracé_5" data-name="Tracé 5" d="M161.736,0l4.222,0a1.383,1.383,0,0,1,.852.38c.748.678,1.423,1.456,2.14,2.165a1.477,1.477,0,0,1,.237.684V9.273a1.87,1.87,0,0,1-1.766,1.756h-5.664A1.87,1.87,0,0,1,160,9.262V1.779A1.868,1.868,0,0,1,161.736,0m4.189,1.417a.21.21,0,0,0-.151-.062c-1.342.01-2.687-.018-4.027.015a.459.459,0,0,0-.374.374c-.024,2.509-.024,5.026,0,7.535a.459.459,0,0,0,.374.374c1.9.024,3.8.024,5.693,0a.484.484,0,0,0,.389-.521c-.009-1.934.016-3.87-.013-5.8l-.049-.072Z" transform="translate(-156.316)"/>
    <path id="Tracé_6" data-name="Tracé 6" d="M2.74,160.021v1.358H1.86a.48.48,0,0,0-.487.388c-.024,2.509-.024,5.026,0,7.535a.459.459,0,0,0,.374.374c1.9.024,3.8.024,5.693,0a.48.48,0,0,0,.388-.487v-.881H9.187v.984a1.869,1.869,0,0,1-1.778,1.756H1.756A1.87,1.87,0,0,1,0,169.283V161.8a1.869,1.869,0,0,1,1.756-1.778Z" transform="translate(0 -156.337)"/>
  </g>
</svg>
