<svg xmlns="http://www.w3.org/2000/svg" xmlns:xlink="http://www.w3.org/1999/xlink" width="30" height="30" viewBox="0 0 30 30">
  <defs>
    <clipPath id="clip-path">
      <rect id="Rectangle_143" data-name="Rectangle 143" width="19.956" height="20" fill="none"/>
    </clipPath>
  </defs>
  <g id="Groupe_46" data-name="Groupe 46" transform="translate(-170 -117)">
    <rect id="Rectangle_144" data-name="Rectangle 144" width="30" height="30" transform="translate(170 117)" fill="none"/>
    <g id="Groupe_45" data-name="Groupe 45" transform="translate(175.022 122)">
      <g id="Groupe_45-2" data-name="Groupe 45" clip-path="url(#clip-path)">
        <path id="Tracé_14" data-name="Tracé 14" d="M19.561,17.814a1.263,1.263,0,0,1-1.649,1.911L12.9,14.717a8.522,8.522,0,0,1-3.581,1.45c-9,1.243-12.9-10.776-5.2-15.089C11.332-2.959,19.252,5.131,15.05,12.342c-.073.126-.392.517-.366.618ZM7.582,2.544A5.632,5.632,0,1,0,13,10.915,5.644,5.644,0,0,0,7.582,2.544" transform="translate(-0.001 0)"/>
      </g>
    </g>
  </g>
</svg>
