<svg xmlns="http://www.w3.org/2000/svg" width="256" height="256" viewBox="0 0 256 256">
  <g id="Groupe_62" data-name="Groupe 62" transform="translate(-116.056 -2534.056)">
    <path id="Tracé_26" data-name="Tracé 26" d="M47.505,0H161.518a47.505,47.505,0,0,1,47.505,47.505V161.518a47.505,47.505,0,0,1-47.505,47.505H47.505A47.505,47.505,0,0,1,0,161.518V47.505A47.505,47.505,0,0,1,47.505,0Z" transform="matrix(0.966, 0.259, -0.259, 0.966, 170.155, 2534.056)" fill="#e2271b"/>
    <g id="Groupe_11" data-name="Groupe 11" transform="translate(191.495 2595.334)">
      <path id="Blick_Logo_Rot_RGB" d="M57.03,79.393H33.549v26.693H57.03a13.347,13.347,0,1,0,0-26.693M52,31.578H33.549V57.157H52a12.79,12.79,0,1,0,0-25.579M105.12,94.4a41.263,41.263,0,0,1-41.376,41.146H0V2.108H59.271A39.033,39.033,0,0,1,98.414,41.033,38.563,38.563,0,0,1,91.155,63.6,40.954,40.954,0,0,1,105.12,94.411" transform="translate(0 -2.108)" fill="#fff"/>
    </g>
  </g>
</svg>
